<?xml version="1.0" standalone="no"?><!DOCTYPE svg PUBLIC "-//W3C//DTD SVG 1.1//EN" "http://www.w3.org/Graphics/SVG/1.1/DTD/svg11.dtd"><svg t="1638258567718" class="icon" viewBox="0 0 1024 1024" version="1.1" xmlns="http://www.w3.org/2000/svg" p-id="2092" width="32" height="32" xmlns:xlink="http://www.w3.org/1999/xlink"><defs><style type="text/css"></style></defs><path d="M938.666667 374.328889L529.066667 68.266667c-10.24-7.964444-23.893333-7.964444-34.133334 0l-409.6 306.062222c-6.826667 5.688889-11.377778 13.653333-11.377777 22.755555V921.6c0 15.928889 12.515556 28.444444 28.444444 28.444444h307.2c15.928889 0 28.444444-12.515556 28.444444-28.444444V716.8c0-40.96 32.995556-73.955556 73.955556-73.955556s73.955556 32.995556 73.955556 73.955556v204.8c0 15.928889 12.515556 28.444444 28.444444 28.444444h307.2c15.928889 0 28.444444-12.515556 28.444444-28.444444V397.084444c0-9.102222-4.551111-17.066667-11.377777-22.755555z m-45.511111 518.826667h-250.311112V716.8c0-71.68-58.026667-130.844444-130.844444-130.844444S381.155556 645.12 381.155556 716.8v176.355556h-250.311112V411.875556l381.155556-284.444445 381.155556 284.444445v481.28z" p-id="2093" fill="#cdcdcd"></path></svg>