<?xml version="1.0" standalone="no"?><!DOCTYPE svg PUBLIC "-//W3C//DTD SVG 1.1//EN" "http://www.w3.org/Graphics/SVG/1.1/DTD/svg11.dtd"><svg t="1632380476762" class="icon" viewBox="0 0 1024 1024" version="1.1" xmlns="http://www.w3.org/2000/svg" p-id="1247" width="32" height="32" xmlns:xlink="http://www.w3.org/1999/xlink"><defs><style type="text/css"></style></defs><path d="M187.200289 819.710463a508.735046 508.735046 0 0 1 325.11939-116.927781c146.495725 0 278.527478 61.695884 371.839303 160.639699a515.839033 515.839033 0 0 1-46.783912 43.775918l-0.128-0.128A508.735046 508.735046 0 0 1 511.99968 1023.99808a509.631044 509.631044 0 0 1-371.839303-160.639699 515.839033 515.839033 0 0 1 46.847912-43.775918l0.128 0.128z m47.87191 43.775918A444.991166 444.991166 0 0 0 511.99968 959.7422a444.991166 444.991166 0 0 0 277.31148-96.511819 444.991166 444.991166 0 0 0-276.991481-96.191819 444.991166 444.991166 0 0 0-277.31148 96.447819z m-146.431725-60.415887A512.959038 512.959038 0 0 1 0.00064 513.919036C0.00064 230.079569 229.24821 0 511.99968 0s511.99904 230.079569 511.99904 513.919036c0 107.263799-32.639939 206.719612-88.639834 289.151458a515.903033 515.903033 0 0 0-41.663922-53.503899A448.895158 448.895158 0 0 0 959.99884 513.983036c0-248.383534-200.575624-449.727157-447.99916-449.727156S64.00052 265.599502 64.00052 513.919036c0 86.399838 24.319954 167.039687 66.303876 235.583559a515.903033 515.903033 0 0 0-41.663922 53.503899z m427.263199-160.639699c-88.383834 0-159.9997-71.871865-159.9997-160.639698 0-88.639834 71.615866-160.575699 159.9997-160.575699 88.319834 0 159.9997 71.935865 159.9997 160.639699 0 88.703834-71.679866 160.639699-159.9997 160.639698z m0-64.255879c52.991901 0 95.99982-43.135919 95.99982-96.319819 0-53.2479-43.007919-96.383819-95.99982-96.38382-53.055901 0-95.99982 43.135919-95.99982 96.38382 0 53.1839 42.943919 96.319819 95.99982 96.319819z" p-id="1248" fill="#dbdbdb"></path></svg>