<?xml version="1.0" standalone="no"?><!DOCTYPE svg PUBLIC "-//W3C//DTD SVG 1.1//EN" "http://www.w3.org/Graphics/SVG/1.1/DTD/svg11.dtd"><svg t="1632382846735" class="icon" viewBox="0 0 1024 1024" version="1.1" xmlns="http://www.w3.org/2000/svg" p-id="14777" width="32" height="32" xmlns:xlink="http://www.w3.org/1999/xlink"><defs><style type="text/css"></style></defs><path d="M878.364444 271.928889L543.857778 81.92c-18.204444-10.24-40.96-10.24-58.026667 0L152.462222 271.928889c-18.204444 10.24-29.582222 29.582222-29.582222 51.2v380.017778c0 21.617778 11.377778 40.96 29.582222 51.2L485.831111 944.355556c9.102222 5.688889 19.342222 7.964444 29.582222 7.964444s20.48-2.275556 29.582223-7.964444l333.368888-190.008889c18.204444-10.24 29.582222-29.582222 29.582223-51.2V323.128889c0-21.617778-11.377778-40.96-29.582223-51.2z m-27.306666 430.08c0 1.137778 0 1.137778-1.137778 2.275555L515.413333 894.293333h-2.275555L179.768889 704.284444c-1.137778 0-1.137778-1.137778-1.137778-2.275555V323.128889c0-1.137778 0-1.137778 1.137778-2.275556l333.368889-190.008889h2.275555l333.368889 190.008889 1.137778 1.137778v380.017778z" p-id="14778" fill="#dbdbdb"></path><path d="M512 347.022222c-91.022222 0-164.977778 73.955556-164.977778 164.977778S420.977778 676.977778 512 676.977778 676.977778 603.022222 676.977778 512 603.022222 347.022222 512 347.022222z m0 273.066667c-59.164444 0-108.088889-48.924444-108.088889-108.088889s48.924444-108.088889 108.088889-108.088889 108.088889 48.924444 108.088889 108.088889-48.924444 108.088889-108.088889 108.088889z" p-id="14779" fill="#dbdbdb"></path></svg>