<?xml version="1.0" standalone="no"?><!DOCTYPE svg PUBLIC "-//W3C//DTD SVG 1.1//EN" "http://www.w3.org/Graphics/SVG/1.1/DTD/svg11.dtd"><svg t="1632381850091" class="icon" viewBox="0 0 1024 1024" version="1.1" xmlns="http://www.w3.org/2000/svg" p-id="10660" width="32" height="32" xmlns:xlink="http://www.w3.org/1999/xlink"><defs><style type="text/css"></style></defs><path d="M511.999488 59.208497C261.922883 59.208497 59.190456 261.933641 59.190456 512c0 250.067382 202.732427 452.791503 452.810056 452.791503 250.076605 0 452.810056-202.723098 452.810056-452.791503C964.809544 261.933641 762.076094 59.208497 511.999488 59.208497zM542.187235 902.885572 542.187235 753.489006c0-16.655332-13.502055-30.18651-30.187746-30.18651s-30.187746 13.531178-30.187746 30.18651l0 149.396565c-192.591048-14.680351-346.092243-168.145581-360.802873-360.699062L270.50161 542.18651c16.685691 0 30.187746-13.501502 30.187746-30.18651s-13.502055-30.18651-30.187746-30.18651L121.009893 481.81349c14.710629-192.553481 168.211825-346.019735 360.802873-360.700085l0 149.397588c0 16.685008 13.502055 30.18651 30.187746 30.18651s30.187746-13.501502 30.187746-30.18651L542.188258 121.113405c192.591048 14.680351 346.092243 168.145581 360.802873 360.700085L753.49839 481.81349c-16.654991 0-30.186723 13.501502-30.186723 30.18651s13.531732 30.18651 30.186723 30.18651l149.492741 0C888.280501 734.73999 734.779306 888.206244 542.187235 902.885572zM511.999488 421.441495c-50.027397 0-90.562216 40.533159-90.562216 90.558505s40.534819 90.558505 90.562216 90.558505 90.562216-40.533159 90.562216-90.558505S562.026885 421.441495 511.999488 421.441495z" p-id="10661" fill="#dbdbdb"></path></svg>